# xmcd
#
# Track frame offsets: 
#        150
#        17735
#        30002
#        47205
#        65405
#        73035
#        87632
#        121492
#        135560
#
# Disc length: 2135 seconds
#
# Revision: 13
# Processed by: cddbd v1.5.2PL0 Copyright (c) Steve Scherf et al.
# Submitted via: ExactAudioCopy v1.0b3
#
DISCID=77085509
DTITLE=Gaye, Marvin - What's Going On
DYEAR=1971
DGENRE=Motown
TTITLE0=What's Going On
TTITLE1=What's Happening Brother
TTITLE2=Flyin' High (In The Friendly Sky)
TTITLE3=Save The Children
TTITLE4=God Is Love
TTITLE5=Mercy Mercy Me (The Ecology)
TTITLE6=Right On
TTITLE7=Wholy Holy
TTITLE8=Inner City Blues (Make Me Wanna Holler)
EXTD=
EXTT0=
EXTT1=
EXTT2=
EXTT3=
EXTT4=
EXTT5=
EXTT6=
EXTT7=
EXTT8=
PLAYORDER=
